# xmcd
#
# Track frame offsets:
# 182
# 22390
# 47487
# 70572
# 89395
# 110865
# 131355
# 158257
# 181167
# 221635
# 238807
# 271327
#
# Disc length: 3865 seconds
#
#
# Revision: 2
# Processed by: cddbd v1.5.2PL0 Copyright (c) Steve Scherf et al.
# Submitted via: FreeRIP 2.945 
#
DISCID=a20f170c
DTITLE=Snowy White - Highway to the Sun
DYEAR=1994
DGENRE=Blues
TTITLE0=Highway to the Sun
TTITLE1=Can't Find Love
TTITLE2=Burning Love
TTITLE3=Loving Man
TTITLE4=The Time Has Come
TTITLE5=Heartful of Love
TTITLE6=Love Pain and Sorrow
TTITLE7=Hot Saturday Night
TTITLE8=Keep on Working
TTITLE9=I Loved Another Woman
TTITLE10=I Can't Get Enough of the Blues
TTITLE11=All My Money (Bonus Track)
EXTD=
EXTT0=
EXTT1=
EXTT2=
EXTT3=
EXTT4=
EXTT5=
EXTT6=
EXTT7=
EXTT8=
EXTT9=
EXTT10=
EXTT11=
PLAYORDER=
